<svg width="72" height="22" viewBox="0 0 72 22" fill="none" xmlns="http://www.w3.org/2000/svg">
<path d="M0.419668 14.8268L2.22282 12.965C2.85434 14.3276 4.07062 14.7368 5.60372 14.7368C6.93269 14.7368 7.67692 14.3276 7.67692 13.7149C7.67692 13.1921 7.06878 12.875 5.42298 12.5343C1.90599 11.8295 0.734368 10.7411 0.734368 8.85569C0.734368 6.97029 2.46947 5.19845 5.80572 5.19845C8.39775 5.19845 9.79476 5.96975 10.8324 7.60661L8.91658 9.24134C8.26379 8.06082 7.36222 7.46949 5.85038 7.46949C4.58732 7.46949 3.82183 7.9687 3.82183 8.56002C3.82183 9.15135 4.38532 9.55842 6.27777 9.94622C9.56937 10.604 10.7856 11.6045 10.7856 13.4899C10.7856 15.5338 9.00589 17.01 5.64625 17.01C3.32427 17.01 1.45308 16.3737 0.417542 14.829L0.419668 14.8268Z" fill="#0F2A43"/>
<path d="M37.5713 9.32917V16.7786H34.4839V10.2376C34.4839 8.28364 33.6503 7.64946 32.4787 7.64946C31.171 7.64946 29.8867 8.51289 29.8867 10.7839V16.7786H26.7992V0.450684H29.8867V7.3538C30.6075 5.90119 31.9152 5.19631 33.5164 5.19631C35.8596 5.19631 37.5734 6.5825 37.5734 9.32917H37.5713Z" fill="#0F2A43"/>
<path d="M50.3868 12.2815H42.4066C42.7213 13.9163 43.7143 14.6897 45.224 14.6897C46.5317 14.6897 47.3887 14.1905 47.7034 13.2821L50.2274 14.2141C49.5065 16.0309 47.7714 17.0079 45.224 17.0079C41.4817 17.0079 39.3638 14.8268 39.3638 11.1032C39.3638 7.37951 41.4157 5.19845 45.0433 5.19845C48.6709 5.19845 50.4761 7.33238 50.4761 11.0582C50.4761 11.3753 50.4315 11.9902 50.3868 12.2837V12.2815ZM42.3854 10.1005H47.6375C47.3887 8.39719 46.4424 7.48878 45.022 7.48878C43.6016 7.48878 42.632 8.37363 42.3854 10.1005Z" fill="#0F2A43"/>
<path d="M59.8959 5.44694L59.5131 8.17219C59.1984 7.96865 58.6796 7.83153 58.0927 7.83153C56.7404 7.83153 55.388 8.82994 55.388 10.8974V16.7807H52.3005V5.42337H54.984V7.64942C55.5709 6.08326 56.9211 5.19627 58.6796 5.19627C59.175 5.19627 59.6258 5.28625 59.8959 5.44694Z" fill="#0F2A43"/>
<path d="M71.4612 12.2815H63.481C63.7957 13.9163 64.7887 14.6897 66.2984 14.6897C67.6061 14.6897 68.463 14.1905 68.7777 13.2821L71.3017 14.2141C70.5809 16.0309 68.8458 17.0079 66.2984 17.0079C62.556 17.0079 60.4382 14.8268 60.4382 11.1032C60.4382 7.37951 62.4901 5.19845 66.1177 5.19845C69.7452 5.19845 71.5505 7.33238 71.5505 11.0582C71.5505 11.3753 71.5058 11.9902 71.4612 12.2837V12.2815ZM63.4597 10.1005H68.7118C68.463 8.39719 67.5168 7.48878 66.0964 7.48878C64.676 7.48878 63.7064 8.37363 63.4597 10.1005Z" fill="#0F2A43"/>
<path d="M24.9471 11.0796C24.9471 14.8032 22.4614 17.0078 19.4866 17.0078C17.8196 17.0078 16.3885 16.168 15.7357 14.8953V21.5499H12.6483V5.42337H15.7357V7.36661C16.3673 5.914 17.6835 5.19627 19.4866 5.19627C22.4848 5.19627 24.9471 7.37733 24.9471 11.0796ZM22.0489 11.1031C22.0489 8.78709 20.4201 7.58301 18.7743 7.58301C17.1285 7.58301 15.7336 8.78709 15.7336 10.9896V11.2167C15.7336 13.3742 17.1498 14.6232 18.7743 14.6232C20.3988 14.6232 22.0489 13.4192 22.0489 11.1031Z" fill="#0F2A43"/>
</svg>
