<svg width="112" height="60" viewBox="0 0 112 60" fill="none" xmlns="http://www.w3.org/2000/svg">
<path d="M20.9497 26.5791C20.5008 27.0348 19.9475 27.3202 19.3679 27.4355C20.1755 29.6421 19.6517 32.1673 17.9937 33.8503C16.8493 35.012 15.3095 35.6268 13.7505 35.6268C13.0487 35.6268 12.3434 35.5005 11.6683 35.2448C11.5559 35.8363 11.2742 36.4013 10.823 36.8594C9.62118 38.0793 7.67274 38.0793 6.47095 36.8594C5.26921 35.6394 5.26921 33.6613 6.47095 32.4414C6.91959 31.986 7.47241 31.7007 8.05145 31.5853C7.22815 29.3717 7.74871 26.8315 9.41417 25.1408C11.0781 23.4514 13.5776 22.9224 15.7567 23.7551C15.8717 23.171 16.1518 22.6139 16.5977 22.161C17.7995 20.9411 19.748 20.9411 20.9497 22.161C22.1515 23.3811 22.1515 25.3591 20.9497 26.5791ZM13.7039 15.7114C6.1934 15.7114 0.104858 21.8923 0.104858 29.5167C0.104858 37.1411 6.1934 43.322 13.7039 43.322C21.2145 43.322 27.3031 37.1411 27.3031 29.5167C27.3031 21.8923 21.2145 15.7114 13.7039 15.7114ZM15.3106 31.1265C14.4315 32.0192 13.006 32.0192 12.1267 31.1265C11.2476 30.2341 11.2476 28.787 12.1267 27.8944C13.006 27.0019 14.4315 27.0019 15.3106 27.8944C16.1899 28.787 16.1899 30.2341 15.3106 31.1265ZM17.3188 22.8931C16.8559 23.3629 16.6437 24.0354 16.7511 24.692C16.7886 24.9069 16.766 25.128 16.6718 25.3343C16.5504 25.6006 16.3342 25.7916 16.0829 25.8856C15.831 25.9796 15.5438 25.9761 15.2812 25.8526C13.807 25.1596 12.0446 25.4781 10.8955 26.6446C9.74655 27.811 9.43297 29.5999 10.1151 31.0962C10.2384 31.3667 10.2398 31.6625 10.1431 31.9206C10.0492 32.1712 9.86303 32.3863 9.60449 32.5079C9.46215 32.5747 9.31243 32.6065 9.16511 32.6065C9.09514 32.6065 9.02631 32.5969 8.95839 32.583C8.28561 32.4894 7.65651 32.7016 7.2001 33.1651C6.81624 33.5547 6.60484 34.0729 6.60484 34.624C6.60484 35.1751 6.81624 35.6931 7.2001 36.083C7.99261 36.8871 9.28192 36.8871 10.0743 36.083C10.537 35.6129 10.7493 34.9404 10.6418 34.2841C10.636 34.2481 10.6373 34.2131 10.6418 34.1788C10.6296 34.0051 10.6588 33.8259 10.736 33.6567C10.857 33.3915 11.0721 33.2009 11.3222 33.1067C11.5747 33.0115 11.863 33.0145 12.1267 33.1384C13.6009 33.8316 15.3632 33.5128 16.5123 32.3464C17.6614 31.18 17.9749 29.3911 17.2927 27.8949C17.1723 27.6308 17.168 27.3425 17.2579 27.0887C17.3494 26.8303 17.5385 26.6076 17.8033 26.4831C17.9893 26.3956 18.1875 26.3694 18.377 26.3944C18.4063 26.3909 18.4361 26.3898 18.4668 26.3942C19.1076 26.4869 19.7363 26.2744 20.1928 25.8108C20.9852 25.0064 20.9852 23.6975 20.1928 22.8931C19.4005 22.0886 18.1111 22.0886 17.3188 22.8931Z" fill="black"/>
<path d="M68.4776 36.5052C68.5868 36.4959 68.6687 36.4912 68.7233 36.4912V39.4322C68.0862 39.5629 67.5857 39.6283 67.2216 39.6283C66.002 39.6283 65.051 39.3108 64.3685 38.676C63.6859 38.0411 63.3446 37.0514 63.3446 35.7069V19.2095H66.7848V35.1188C66.7848 35.5856 66.8758 35.9357 67.0577 36.1691C67.2398 36.4026 67.6038 36.5192 68.1499 36.5192C68.2591 36.5192 68.3684 36.5146 68.4776 36.5052ZM70.3683 39.4602H73.8358V24.8954H70.3683V39.4602ZM85.2005 24.8954H88.6135V39.4602H85.7739L85.5282 37.5556C85.1824 38.2652 84.6454 38.8207 83.9173 39.2222C83.1892 39.6236 82.3702 39.8244 81.4601 39.8244C79.9493 39.8244 78.7526 39.3482 77.8697 38.3959C76.987 37.4435 76.5456 36.1831 76.5456 34.6146V24.8954H79.9584V33.8304C79.9584 35.6789 80.7775 36.6033 82.4156 36.6033C83.1073 36.6033 83.6898 36.3605 84.1631 35.875C84.8548 35.2215 85.2005 34.1292 85.2005 32.598V24.8954ZM111.637 29.629V39.4602H108.251V30.4132C108.251 29.4609 108.092 28.7513 107.773 28.2845C107.455 27.8177 106.886 27.5843 106.067 27.5843C105.175 27.5843 104.488 27.9811 104.005 28.7747C103.523 29.5682 103.282 30.4786 103.282 31.5055V39.4602H99.8964V30.4132C99.8964 29.4609 99.7371 28.7513 99.4186 28.2845C99.1 27.8177 98.5312 27.5843 97.7121 27.5843C96.8203 27.5843 96.1286 27.9811 95.6371 28.7747C95.1457 29.5682 94.9 30.4786 94.9 31.5055V39.4602H91.5143V24.8954H94.3539L94.6269 26.828C95.537 25.2968 96.884 24.5313 98.6677 24.5313C100.615 24.5313 101.971 25.3248 102.736 26.912C103.628 25.3248 105.057 24.5313 107.022 24.5313C108.497 24.5313 109.634 24.9933 110.435 25.9177C111.236 26.8421 111.637 28.0791 111.637 29.629ZM70.2591 22.8787H73.9177V19.2655H70.2591V22.8787ZM45.6113 25.9878C46.4668 26.9587 46.8946 28.2098 46.8946 29.741V39.4602H43.4817V30.4692C43.4817 29.5729 43.3042 28.896 42.9493 28.4386C42.5944 27.9811 41.9892 27.7523 41.1337 27.7523C40.1871 27.7523 39.4636 28.1678 38.9631 28.9988C38.4625 29.8297 38.2122 30.7587 38.2122 31.7856V39.4602H34.7994V19.2375H38.2122V26.4359C38.6127 25.8384 39.1678 25.3715 39.8777 25.0354C40.5876 24.6993 41.3248 24.5313 42.0892 24.5313C43.5818 24.5313 44.7558 25.0167 45.6113 25.9878ZM52.0344 30.7213C52.0526 29.825 52.2983 29.0688 52.7716 28.4525C53.3175 27.7057 54.1093 27.3321 55.1469 27.3321C56.0752 27.3321 56.7941 27.6123 57.3038 28.1725C57.8681 28.8073 58.1593 29.657 58.1776 30.7213H52.0344ZM55.1741 24.5313C53.3175 24.5313 51.8068 25.1474 50.6419 26.3799C49.2767 27.8177 48.5942 29.7596 48.5942 32.2059C48.5942 34.652 49.3223 36.5939 50.7784 38.0317C51.998 39.2267 53.4905 39.8244 55.256 39.8244C57.3129 39.8244 58.9056 39.1428 60.0341 37.7796C60.744 36.9021 61.1444 36.0057 61.2354 35.0908H57.9591C57.8316 35.5762 57.6042 35.9871 57.2765 36.3231C56.8214 36.79 56.1298 37.0234 55.2014 37.0234C54.4188 37.0234 53.7181 36.7247 53.0991 36.1271C52.3711 35.4176 52.0253 34.4652 52.0617 33.2702H61.563C61.563 33.0647 61.5722 32.738 61.5903 32.2899C61.6449 30.2732 61.2354 28.5833 60.3617 27.2201C59.1968 25.4275 57.4676 24.5313 55.1741 24.5313Z" fill="#212121"/>
</svg>
