<svg width="142" height="57" viewBox="0 0 142 57" fill="none" xmlns="http://www.w3.org/2000/svg">
<g clip-path="url(#clip0_390_6856)">
<path d="M32.148 36.1983V19.1118H29.4099V36.1983H32.148Z" fill="black"/>
<path d="M39.8856 36.4908C41.3176 36.4908 42.9252 35.8074 43.6538 34.6601V36.1979H46.3668V24.8232H43.6538V26.361C42.9252 25.2137 41.5183 24.5303 39.961 24.5303C36.3184 24.5303 34.1327 27.1665 34.1327 30.5106C34.1327 33.8546 36.1174 36.4908 39.8856 36.4908ZM40.2876 34.1231C38.1521 34.1231 36.8711 32.5853 36.8711 30.5106C36.8711 28.4358 38.1521 26.898 40.2876 26.898C42.6237 26.898 43.7543 28.5578 43.7543 30.5106C43.7543 32.4633 42.6237 34.1231 40.2876 34.1231Z" fill="black"/>
<path d="M54.5259 33.9521C53.4457 33.9521 52.8176 33.708 52.8176 31.7309V27.0443H55.5057V24.823H52.8176V21.3813H50.0795V24.823H48.0948V27.0443H50.0795V32.3411C50.0795 36.1734 52.5413 36.3442 53.8728 36.3442C54.6767 36.3442 55.4806 36.271 55.9075 36.1978V33.8545C55.6311 33.9033 54.953 33.9521 54.5259 33.9521Z" fill="black"/>
<path d="M59.1279 23.1872C60.3338 23.1872 61.1626 22.3085 61.1626 21.2101C61.1626 20.1116 60.3338 19.2329 59.1279 19.2329C57.922 19.2329 57.093 20.1116 57.093 21.2101C57.093 22.3085 57.922 23.1872 59.1279 23.1872ZM60.4845 36.1974V24.8226H57.7713V36.1974H60.4845Z" fill="black"/>
<path d="M68.6509 33.9526C67.5709 33.9526 66.9428 33.7085 66.9428 31.7314V27.0448H69.6307V24.8235H66.9428V21.3818H64.2045V24.8235H62.22V27.0448H64.2045V32.3416C64.2045 36.1738 66.6665 36.3447 67.9977 36.3447C68.8017 36.3447 69.6056 36.2715 70.0327 36.1983V33.855C69.7563 33.9038 69.078 33.9526 68.6509 33.9526Z" fill="black"/>
<path d="M76.1178 36.4904C77.8008 36.4904 79.0318 35.8313 79.7353 34.6109V36.1975H82.4734V24.8228H79.7353V31.2424C79.7353 32.8778 78.9816 34.2203 76.8966 34.2203C75.1129 34.2203 74.51 33.1463 74.51 31.3156V24.8228H71.7718V31.9747C71.7718 35.0258 73.5553 36.4904 76.1178 36.4904Z" fill="black"/>
<path d="M93.9672 26.3609C93.2386 25.2136 91.8317 24.5302 90.2744 24.5302C86.6316 24.5302 84.4462 27.1664 84.4462 30.5105C84.4462 33.8545 86.4306 36.4907 90.199 36.4907C91.6308 36.4907 93.2386 35.8073 93.9672 34.66V36.1978H96.6802V19.1113H93.9672V26.3609ZM90.6007 34.123C88.4655 34.123 87.1843 32.5853 87.1843 30.5105C87.1843 28.4357 88.4655 26.8979 90.6007 26.8979C92.9371 26.8979 94.0677 28.5577 94.0677 30.5105C94.0677 32.4632 92.9371 34.123 90.6007 34.123Z" fill="black"/>
<path d="M110.14 29.9242C110.14 26.7266 107.879 24.5298 104.538 24.5298C100.971 24.5298 98.6595 26.8731 98.6595 30.5101C98.6595 34.1959 100.945 36.4903 104.638 36.4903C107.452 36.4903 109.663 35.0014 110.014 32.8778H107.251C106.799 33.7565 105.995 34.1714 104.638 34.1714C102.654 34.1714 101.448 33.1951 101.372 31.3888H110.064C110.115 30.7541 110.14 30.388 110.14 29.9242ZM101.372 29.3628C101.398 27.7518 102.553 26.629 104.487 26.629C106.372 26.629 107.427 27.6054 107.452 29.3628H101.372Z" fill="black"/>
<path d="M113.501 36.3932C114.682 36.3932 115.637 35.4413 115.637 34.3184C115.637 33.1956 114.682 32.2681 113.501 32.2681C112.321 32.2681 111.391 33.1956 111.391 34.3184C111.391 35.4413 112.321 36.3932 113.501 36.3932Z" fill="black"/>
<path d="M122.346 36.4908C125.185 36.4908 126.968 35.1727 126.968 32.9515C126.968 31.3405 125.913 30.1688 124.255 29.705L121.919 29.046C120.839 28.7531 120.462 28.3381 120.462 27.7279C120.462 27.0444 121.165 26.5562 122.145 26.5562C123.426 26.5562 124.18 27.1176 124.18 28.0696H126.868C126.868 25.8728 125.109 24.5303 122.245 24.5303C119.633 24.5303 117.749 25.946 117.749 27.8744C117.749 29.4853 118.678 30.6326 120.311 31.072L122.647 31.6822C123.903 31.9995 124.18 32.3901 124.18 33.0247C124.18 33.8302 123.527 34.3672 122.497 34.3672C121.09 34.3672 120.11 33.6838 120.11 32.7074H117.372C117.372 34.8798 119.482 36.4908 122.346 36.4908Z" fill="black"/>
<path d="M135.635 24.5302C133.902 24.5302 132.545 25.1892 131.816 26.4097V19.1113H129.078V36.1978H131.816V29.949C131.816 27.9475 132.821 26.8002 134.605 26.8002C136.514 26.8002 137.167 27.8499 137.167 30.2664V36.1978H139.905V29.0459C139.905 26.068 138.448 24.5302 135.635 24.5302Z" fill="black"/>
<path d="M22.0359 34.5259L19.9418 40.5889H7.88407L9.97816 34.5259H22.0359ZM15.3818 16.4199H7.9071L2.02306 33.4564H9.49757L15.3818 16.4199Z" fill="black"/>
</g>
<defs>
<clipPath id="clip0_390_6856">
<rect width="140.302" height="24.169" fill="white" transform="translate(0.813385 16.4199)"/>
</clipPath>
</defs>
</svg>
