<svg width="199" height="27" viewBox="0 0 199 27" fill="none" xmlns="http://www.w3.org/2000/svg">
<g clip-path="url(#clip0_390_6873)">
<path d="M16.0919 3.4761V8.17063C16.0919 12.4308 12.639 15.8838 8.37879 15.8838C7.87106 15.8838 7.37523 15.8342 6.89526 15.739V18.7556H14.6084C18.8686 18.7556 22.3216 15.3027 22.3216 11.0425C22.3216 7.29004 19.6421 4.1663 16.0919 3.47412V3.4761Z" fill="#262626"/>
<path d="M9.39626 26.5744C11.1178 26.5744 12.5121 25.1801 12.5121 23.4586C12.5121 21.7371 11.1178 20.3428 9.39626 20.3428C7.67473 20.3428 6.28046 21.7371 6.28046 23.4586C6.28046 25.1801 7.67473 26.5744 9.39626 26.5744Z" fill="#262626"/>
<path d="M8.38075 15.8838C12.6409 15.8838 16.0939 12.4308 16.0939 8.17064V0.459473H0.667603V8.17262C0.667603 11.9251 3.34707 15.0488 6.89722 15.741C7.37719 15.8342 7.87302 15.8858 8.38075 15.8858V15.8838Z" fill="#D6DDF1"/>
<path d="M31.5995 3.47656V12.34C31.5995 15.5411 32.9026 17.1437 35.5067 17.1437C38.1108 17.1437 39.4575 15.5431 39.4575 12.34V3.47656H41.3575V12.231C41.3575 14.4146 40.8597 16.0687 39.8621 17.1972C38.8645 18.3257 37.4127 18.889 35.5067 18.889C33.6007 18.889 32.1549 18.3257 31.1731 17.1972C30.1914 16.0687 29.6995 14.4146 29.6995 12.231V3.47656H31.5995Z" fill="#D6DDF1"/>
<path d="M51.6688 8.71636C52.4899 9.5315 52.9025 10.8127 52.9025 12.5581V18.7579H51.1115V12.6671C51.1115 11.5168 50.8537 10.6402 50.336 10.0373C49.8184 9.43432 49.0727 9.13087 48.0988 9.13087C47.0516 9.13087 46.2286 9.4958 45.6316 10.2217C45.0346 10.9496 44.7371 11.9393 44.7371 13.1907V18.7579H42.9462V7.62553H44.4971L44.7371 9.13087C45.582 8.04004 46.8037 7.49463 48.4043 7.49463C49.7589 7.49463 50.8457 7.90319 51.6688 8.71636Z" fill="#D6DDF1"/>
<path d="M64.729 3.47656V18.7581H63.18L62.94 16.9671C62.0079 18.2484 60.7346 18.889 59.1201 18.889C58.0868 18.889 57.1666 18.6629 56.3594 18.2127C55.5521 17.7624 54.9195 17.106 54.4593 16.2472C54.0012 15.3884 53.7711 14.369 53.7711 13.1909C53.7711 12.0128 54.0012 11.0806 54.4593 10.2218C54.9175 9.36307 55.5541 8.69469 56.3693 8.21274C57.1844 7.73278 58.1007 7.49279 59.1201 7.49279C60.0226 7.49279 60.7941 7.65741 61.4347 7.98466C62.0753 8.31191 62.5771 8.76014 62.942 9.32737V3.47656H64.731H64.729ZM61.2026 16.7827C61.7619 16.4416 62.1963 15.9616 62.5017 15.3428C62.8071 14.724 62.9599 14.0219 62.9599 13.2365C62.9599 12.4511 62.8071 11.7193 62.5017 11.0866C62.1963 10.4539 61.7619 9.96203 61.2026 9.61297C60.6433 9.2639 60.0047 9.08937 59.2927 9.08937C58.186 9.08937 57.2955 9.47215 56.6192 10.2357C55.9429 10.9993 55.6037 11.985 55.6037 13.1929C55.6037 14.4007 55.9429 15.3864 56.6192 16.15C57.2955 16.9136 58.186 17.2964 59.2927 17.2964C60.0047 17.2964 60.6433 17.1258 61.2026 16.7827Z" fill="#D6DDF1"/>
<path d="M66.4168 10.1999C66.8611 9.34113 67.4839 8.67474 68.2831 8.20271C69.0844 7.73068 70.0007 7.49268 71.034 7.49268C72.0673 7.49268 72.9558 7.70291 73.7412 8.12536C74.5266 8.5478 75.1454 9.15867 75.5976 9.95993C76.0478 10.7612 76.2878 11.6993 76.3176 12.7763C76.3176 12.9369 76.3017 13.1908 76.2739 13.5398H67.6286V13.6925C67.6584 14.7834 67.9916 15.658 68.6322 16.3125C69.2728 16.967 70.1098 17.2943 71.1431 17.2943C71.9443 17.2943 72.6226 17.0939 73.1839 16.6933C73.7432 16.2927 74.1181 15.7374 74.3085 15.0234H76.1212C75.9031 16.1578 75.3576 17.086 74.483 17.806C73.6103 18.5259 72.5393 18.8869 71.274 18.8869C70.1673 18.8869 69.1994 18.6509 68.3704 18.1768C67.5414 17.7048 66.8968 17.0344 66.4386 16.1677C65.9805 15.303 65.7504 14.3094 65.7504 13.1888C65.7504 12.0682 65.9726 11.0567 66.4168 10.1979V10.1999ZM74.4612 12.0563C74.3739 11.1103 74.0209 10.3744 73.4021 9.85085C72.7833 9.32725 72.0019 9.06545 71.0558 9.06545C70.2109 9.06545 69.4692 9.34113 68.8286 9.89448C68.1879 10.4478 67.825 11.1678 67.7377 12.0563H74.4612Z" fill="#D6DDF1"/>
<path d="M82.9934 7.62598V9.37328H82.099C81.0359 9.37328 80.2763 9.73028 79.8181 10.4423C79.36 11.1563 79.1299 12.0349 79.1299 13.0841V18.7604H77.341V7.62796H78.8899L79.1299 9.30982C79.4492 8.8001 79.8638 8.39352 80.3735 8.08809C80.8832 7.78266 81.5893 7.62994 82.4917 7.62994H82.9934V7.62598Z" fill="#D6DDF1"/>
<path d="M93.5348 3.47656V18.7581H91.9838L91.7439 16.9671C90.8117 18.2484 89.5384 18.889 87.924 18.889C86.8907 18.889 85.9704 18.6629 85.1632 18.2127C84.356 17.7624 83.7233 17.106 83.2632 16.2472C82.805 15.3884 82.575 14.369 82.575 13.1909C82.575 12.0128 82.805 11.0806 83.2632 10.2218C83.7213 9.36307 84.358 8.69469 85.1731 8.21274C85.9882 7.73278 86.9045 7.49279 87.924 7.49279C88.8264 7.49279 89.5979 7.65741 90.2385 7.98466C90.8791 8.31191 91.3809 8.76014 91.7439 9.32737V3.47656H93.5348ZM90.0084 16.7827C90.5677 16.4416 91.0021 15.9616 91.3075 15.3428C91.613 14.724 91.7657 14.0219 91.7657 13.2365C91.7657 12.4511 91.613 11.7193 91.3075 11.0866C91.0021 10.4539 90.5677 9.96203 90.0084 9.61297C89.4472 9.2639 88.8105 9.08937 88.0985 9.08937C86.9918 9.08937 86.1013 9.47215 85.425 10.2357C84.7487 10.9993 84.4095 11.985 84.4095 13.1929C84.4095 14.4007 84.7487 15.3864 85.425 16.15C86.1013 16.9136 86.9938 17.2964 88.0985 17.2964C88.8125 17.2964 89.4491 17.1258 90.0084 16.7827Z" fill="#D6DDF1"/>
<path d="M97.2079 18.1689C96.371 17.6889 95.7204 17.0186 95.2543 16.1598C94.7883 15.301 94.5562 14.3113 94.5562 13.1908C94.5562 12.0702 94.7883 11.0805 95.2543 10.2217C95.7204 9.36295 96.371 8.69457 97.2079 8.21262C98.0449 7.73266 99.0008 7.49268 100.078 7.49268C101.155 7.49268 102.111 7.73266 102.948 8.21262C103.785 8.69259 104.435 9.36295 104.901 10.2217C105.367 11.0805 105.599 12.0702 105.599 13.1908C105.599 14.3113 105.367 15.301 104.901 16.1598C104.435 17.0186 103.785 17.687 102.948 18.1689C102.111 18.6489 101.155 18.8889 100.078 18.8889C99.0008 18.8889 98.0429 18.6489 97.2079 18.1689ZM102.012 16.7727C102.571 16.4236 103.005 15.9357 103.311 15.3109C103.616 14.6862 103.769 13.9801 103.769 13.1927C103.769 12.4054 103.616 11.7013 103.311 11.0746C103.005 10.4498 102.573 9.96192 102.012 9.61285C101.45 9.26378 100.808 9.08925 100.08 9.08925C99.3519 9.08925 98.7073 9.26378 98.148 9.61285C97.5867 9.96192 97.1544 10.4498 96.8489 11.0746C96.5435 11.7013 96.3908 12.4054 96.3908 13.1927C96.3908 13.9801 96.5435 14.6842 96.8489 15.3109C97.1544 15.9377 97.5867 16.4236 98.148 16.7727C98.7073 17.1217 99.3519 17.2962 100.08 17.2962C100.808 17.2962 101.452 17.1217 102.012 16.7727Z" fill="#D6DDF1"/>
<path d="M117.19 7.62553V18.2125C117.19 21.5742 115.349 23.2561 111.666 23.2561C110.224 23.2561 109.05 22.9289 108.14 22.2744C107.23 21.6199 106.702 20.6877 106.557 19.4799H108.392C108.537 20.178 108.908 20.7175 109.505 21.0943C110.101 21.4731 110.865 21.6615 111.797 21.6615C114.199 21.6615 115.399 20.4894 115.399 18.1471V16.8381C114.598 18.2066 113.324 18.8908 111.579 18.8908C110.546 18.8908 109.625 18.6647 108.818 18.2145C108.011 17.7643 107.376 17.1078 106.918 16.249C106.46 15.3902 106.23 14.3708 106.23 13.1927C106.23 12.0146 106.458 11.0825 106.918 10.2237C107.376 9.3649 108.013 8.69652 108.828 8.21458C109.643 7.73461 110.56 7.49463 111.579 7.49463C112.481 7.49463 113.253 7.67313 113.894 8.03013C114.534 8.38712 115.036 8.89287 115.399 9.54737L115.639 7.62553H117.19ZM113.664 16.7825C114.223 16.4414 114.657 15.9614 114.963 15.3426C115.268 14.7238 115.421 14.0217 115.421 13.2364C115.421 12.451 115.268 11.7191 114.963 11.0864C114.657 10.4537 114.223 9.96188 113.664 9.61282C113.102 9.26375 112.466 9.08922 111.754 9.08922C110.647 9.08922 109.756 9.472 109.08 10.2356C108.404 10.9992 108.065 11.9849 108.065 13.1927C108.065 14.4006 108.404 15.3863 109.08 16.1499C109.756 16.9134 110.649 17.2962 111.754 17.2962C112.466 17.2962 113.104 17.1257 113.664 16.7825Z" fill="#D6DDF1"/>
<path d="M128.818 3.47656C129.822 3.47656 130.71 3.66894 131.482 4.05569C132.253 4.44046 132.846 4.98786 133.261 5.69194C133.675 6.398 133.884 7.22306 133.884 8.16911C133.884 9.11515 133.673 9.94418 133.251 10.6582C132.828 11.3722 132.235 11.9216 131.472 12.3063C130.708 12.6911 129.824 12.8855 128.82 12.8855H124.848V18.7581H122.948V3.47656H128.82H128.818ZM124.846 11.1381H128.644C129.647 11.1381 130.448 10.8684 131.045 10.3309C131.642 9.79345 131.94 9.07152 131.94 8.16911C131.94 7.2667 131.644 6.55072 131.055 6.01918C130.466 5.48765 129.669 5.22189 128.665 5.22189H124.846V11.1381Z" fill="#262626"/>
<path d="M141.087 7.62598V9.37328H140.193C139.129 9.37328 138.37 9.73028 137.912 10.4423C137.454 11.1563 137.223 12.0349 137.223 13.0841V18.7604H135.435V7.62796H136.983L137.223 9.30982C137.543 8.8001 137.957 8.39352 138.467 8.08809C138.977 7.78266 139.683 7.62994 140.585 7.62994H141.087V7.62598Z" fill="#262626"/>
<path d="M144.131 18.1689C143.294 17.6889 142.644 17.0186 142.178 16.1598C141.712 15.301 141.48 14.3113 141.48 13.1908C141.48 12.0702 141.712 11.0805 142.178 10.2217C142.644 9.36295 143.294 8.69457 144.131 8.21262C144.968 7.73266 145.924 7.49268 147.001 7.49268C148.078 7.49268 149.034 7.73266 149.871 8.21262C150.708 8.69259 151.359 9.36295 151.825 10.2217C152.291 11.0805 152.523 12.0702 152.523 13.1908C152.523 14.3113 152.291 15.301 151.825 16.1598C151.359 17.0186 150.708 17.687 149.871 18.1689C149.034 18.6489 148.078 18.8889 147.001 18.8889C145.924 18.8889 144.966 18.6489 144.131 18.1689ZM148.935 16.7727C149.494 16.4236 149.929 15.9357 150.234 15.3109C150.54 14.6862 150.692 13.9801 150.692 13.1927C150.692 12.4054 150.54 11.7013 150.234 11.0746C149.929 10.4498 149.494 9.96192 148.935 9.61285C148.374 9.26378 147.731 9.08925 147.003 9.08925C146.275 9.08925 145.631 9.26378 145.071 9.61285C144.51 9.96192 144.078 10.4498 143.772 11.0746C143.467 11.7013 143.314 12.4054 143.314 13.1927C143.314 13.9801 143.467 14.6842 143.772 15.3109C144.078 15.9377 144.51 16.4236 145.071 16.7727C145.631 17.1217 146.275 17.2962 147.003 17.2962C147.731 17.2962 148.376 17.1217 148.935 16.7727Z" fill="#262626"/>
<path d="M154.97 9.26193H152.961V7.62371H154.97V4.50195H156.759V7.62371H159.576V9.26193H156.759V15.8327C156.759 16.2988 156.85 16.63 157.033 16.8263C157.215 17.0227 157.531 17.1218 157.983 17.1218H159.927V18.7601H157.874C156.827 18.7601 156.081 18.528 155.637 18.0619C155.192 17.5959 154.97 16.862 154.97 15.8565V9.26391V9.26193Z" fill="#262626"/>
<path d="M162.949 18.1689C162.112 17.6889 161.462 17.0186 160.996 16.1598C160.53 15.301 160.297 14.3113 160.297 13.1908C160.297 12.0702 160.53 11.0805 160.996 10.2217C161.462 9.36295 162.112 8.69457 162.949 8.21262C163.786 7.73266 164.742 7.49268 165.819 7.49268C166.896 7.49268 167.852 7.73266 168.689 8.21262C169.526 8.69259 170.176 9.36295 170.642 10.2217C171.109 11.0805 171.341 12.0702 171.341 13.1908C171.341 14.3113 171.109 15.301 170.642 16.1598C170.176 17.0186 169.526 17.687 168.689 18.1689C167.852 18.6489 166.896 18.8889 165.819 18.8889C164.742 18.8889 163.784 18.6489 162.949 18.1689ZM167.751 16.7727C168.31 16.4236 168.744 15.9357 169.05 15.3109C169.355 14.6862 169.508 13.9801 169.508 13.1927C169.508 12.4054 169.355 11.7013 169.05 11.0746C168.744 10.4498 168.31 9.96192 167.751 9.61285C167.19 9.26378 166.547 9.08925 165.819 9.08925C165.091 9.08925 164.447 9.26378 163.887 9.61285C163.326 9.96192 162.894 10.4498 162.588 11.0746C162.283 11.7013 162.13 12.4054 162.13 13.1927C162.13 13.9801 162.283 14.6842 162.588 15.3109C162.894 15.9377 163.326 16.4236 163.887 16.7727C164.447 17.1217 165.091 17.2962 165.819 17.2962C166.547 17.2962 167.191 17.1217 167.751 16.7727Z" fill="#262626"/>
<path d="M181.471 17.8297C180.613 18.5358 179.52 18.8888 178.197 18.8888C177.12 18.8888 176.174 18.6488 175.359 18.1689C174.544 17.6889 173.911 17.0146 173.459 16.1499C173.007 15.2851 172.782 14.2915 172.782 13.1709C172.782 12.0503 173.013 11.0606 173.471 10.2019C173.929 9.34309 174.573 8.67669 175.402 8.20466C176.231 7.73263 177.185 7.49463 178.262 7.49463C179.571 7.49463 180.652 7.84369 181.503 8.54182C182.354 9.23995 182.889 10.2019 183.108 11.4236H181.295C181.12 10.7116 180.755 10.1424 180.204 9.71992C179.651 9.29747 178.982 9.08724 178.195 9.08724C177.132 9.08724 176.271 9.46605 175.609 10.2217C174.946 10.9793 174.615 11.9611 174.615 13.1689C174.615 14.3768 174.946 15.3843 175.609 16.1479C176.271 16.9115 177.134 17.2942 178.195 17.2942C179.01 17.2942 179.694 17.084 180.248 16.6616C180.801 16.2391 181.158 15.658 181.317 14.9142H183.108C182.874 16.1518 182.328 17.1237 181.469 17.8277L181.471 17.8297Z" fill="#262626"/>
<path d="M186.983 18.1689C186.146 17.6889 185.496 17.0186 185.03 16.1598C184.563 15.301 184.331 14.3113 184.331 13.1908C184.331 12.0702 184.563 11.0805 185.03 10.2217C185.496 9.36295 186.146 8.69457 186.983 8.21262C187.82 7.73266 188.776 7.49268 189.853 7.49268C190.93 7.49268 191.886 7.73266 192.723 8.21262C193.56 8.69259 194.21 9.36295 194.676 10.2217C195.143 11.0805 195.375 12.0702 195.375 13.1908C195.375 14.3113 195.143 15.301 194.676 16.1598C194.21 17.0186 193.56 17.687 192.723 18.1689C191.886 18.6489 190.93 18.8889 189.853 18.8889C188.776 18.8889 187.818 18.6489 186.983 18.1689ZM191.785 16.7727C192.344 16.4236 192.778 15.9357 193.084 15.3109C193.389 14.6862 193.542 13.9801 193.542 13.1927C193.542 12.4054 193.389 11.7013 193.084 11.0746C192.778 10.4498 192.344 9.96192 191.785 9.61285C191.223 9.26378 190.581 9.08925 189.853 9.08925C189.125 9.08925 188.481 9.26378 187.921 9.61285C187.36 9.96192 186.928 10.4498 186.622 11.0746C186.317 11.7013 186.164 12.4054 186.164 13.1927C186.164 13.9801 186.317 14.6842 186.622 15.3109C186.928 15.9377 187.36 16.4236 187.921 16.7727C188.481 17.1217 189.125 17.2962 189.853 17.2962C190.581 17.2962 191.223 17.1217 191.785 16.7727Z" fill="#262626"/>
<path d="M197.209 3.47656H199V18.7581H197.209V3.47656Z" fill="#262626"/>
</g>
<defs>
<clipPath id="clip0_390_6873">
<rect width="198.332" height="26.1144" fill="white" transform="translate(0.667603 0.459473)"/>
</clipPath>
</defs>
</svg>
