<svg width="47" height="48" viewBox="0 0 47 48" fill="none" xmlns="http://www.w3.org/2000/svg">
<g opacity="0.3">
<path d="M37.2256 34.7059C31.3364 42.3927 20.3294 43.85 12.6407 37.9597C4.95524 32.0715 3.49715 21.0647 9.38705 13.3788C15.2756 5.69058 26.2829 4.23283 33.9693 10.1215C41.6577 16.011 43.1149 27.0186 37.2256 34.7059Z" fill="#F7931A"/>
<path d="M31.3966 24.8287C32.6459 22.8268 31.515 20.9685 29.619 19.2335L31.6005 16.6472L30.0258 15.4412L28.0967 17.9594C27.6827 17.6424 27.2533 17.3264 26.8266 17.0128L28.7688 14.4782L27.1952 13.2726L25.2137 15.8577C24.8675 15.6035 24.5279 15.3534 24.2013 15.1036L24.2072 15.0954L22.0362 13.4311L20.7484 15.1128C20.7484 15.1128 21.9281 15.9813 21.8924 15.9879C22.53 16.4766 22.4539 17.0058 22.2696 17.3715L20.0124 20.318C20.0562 20.352 20.1122 20.3978 20.1704 20.4565C20.1179 20.4164 20.062 20.373 20.0039 20.3293L16.8412 24.4565C16.6594 24.6357 16.2963 24.8653 15.8502 24.5248C15.8566 24.558 14.7058 23.6477 14.7058 23.6477L12.9526 25.2881L15.0016 26.8577C15.3826 27.1502 15.7528 27.4441 16.1193 27.7286L14.1159 30.3449L15.6885 31.55L17.6714 28.9618C18.0964 29.3016 18.5117 29.6252 18.9199 29.9374L16.9455 32.513L18.5201 33.719L20.5211 31.1083C23.2845 32.9842 25.6481 33.7367 27.7823 31.4276C29.5013 29.5686 29.2439 27.9543 28.0177 26.4424C29.2867 26.677 30.4848 26.2953 31.3966 24.8287ZM24.9087 28.7343C23.4119 30.6897 20.2347 27.9029 19.1668 27.0865L21.8225 23.6211C22.8897 24.439 26.4709 26.6955 24.9087 28.7343ZM27.9226 23.2836C26.5596 25.0617 23.9267 22.7155 23.0379 22.0346L25.4462 18.8915C26.335 19.5723 29.3436 21.4285 27.9226 23.2836Z" fill="white"/>
</g>
</svg>
