<svg width="37" height="37" viewBox="0 0 37 37" fill="none" xmlns="http://www.w3.org/2000/svg">
<g opacity="0.6">
<ellipse cx="14.1226" cy="13.3945" rx="14.1226" ry="13.3945" transform="matrix(0.946389 -0.32303 0.365047 0.930989 0.249023 10.7012)" fill="#E4E4E4"/>
<path d="M15.3616 10.5934L15.3866 10.9992L19.5435 21.6005L19.7038 21.6675L23.9707 16.913L15.3616 10.5934Z" fill="#343434"/>
<path d="M15.3591 10.5942L13.1531 20.6052L19.7013 21.6682L17.6837 16.5226L15.3591 10.5942Z" fill="#8C8C8C"/>
<path d="M20.0688 22.5999L20.0312 22.6966L21.5119 26.4729L21.6479 26.6272L24.3396 17.8457L20.0688 22.5999Z" fill="#3C3C3B"/>
<path d="M21.6454 26.6279L20.0662 22.6006L13.5186 21.5391L21.6454 26.6279Z" fill="#8C8C8C"/>
<path d="M19.6992 21.6681L23.9661 16.9135L17.6815 16.5225L19.6992 21.6681Z" fill="#141414"/>
<path d="M13.1525 20.6045L19.7006 21.6675L17.683 16.5219L13.1525 20.6045Z" fill="#393939"/>
</g>
</svg>
