<svg width="27" height="27" viewBox="0 0 27 27" fill="none" xmlns="http://www.w3.org/2000/svg">
<g opacity="0.7">
<circle cx="13.4629" cy="13.5003" r="10.5" transform="rotate(18.2837 13.4629 13.5003)" fill="#8247E5"/>
<path d="M17.2446 12.4858C17.0676 12.289 16.787 12.1963 16.4963 12.2386L14.4104 12.6906L13.0093 12.9539L10.9546 13.4162C10.6951 13.4688 10.4145 13.3761 10.2063 13.169L9.13349 11.9154C8.95645 11.7186 8.88297 11.4176 8.97568 11.137L9.49075 9.57812C9.57316 9.3287 9.78028 9.12048 10.0812 9.047L11.6794 8.7105C11.9389 8.6579 12.2195 8.75061 12.4277 8.95774L13.5005 10.2113C13.6775 10.4081 13.751 10.7091 13.6583 10.9897L13.3184 12.0186L14.7298 11.7241L15.08 10.664C15.1624 10.4146 15.1201 10.124 14.9222 9.88568L12.9121 7.5962C12.7351 7.39938 12.4545 7.30667 12.1638 7.34897L9.11278 8.00081C8.82215 8.04311 8.61502 8.25133 8.53261 8.50075L7.56429 11.4315C7.48188 11.6809 7.52418 11.9715 7.7221 12.2098L9.76336 14.5096C9.9404 14.7064 10.221 14.7992 10.5116 14.7569L12.5561 14.3257L13.9675 14.0313L16.0119 13.6001C16.2714 13.5475 16.552 13.6403 16.7602 13.8474L17.8433 15.0698C18.0203 15.2666 18.0938 15.5675 18.0011 15.8481L17.486 17.407C17.4036 17.6565 17.1965 17.8647 16.8956 17.9382L15.3286 18.285C15.0691 18.3376 14.7885 18.2449 14.5803 18.0377L13.4972 16.8153C13.3201 16.6185 13.2466 16.3176 13.3394 16.037L13.669 15.0393L12.2576 15.3337L11.9177 16.3626C11.8353 16.612 11.8776 16.9027 12.0755 17.141L14.1167 19.4407C14.2938 19.6376 14.5744 19.7303 14.865 19.688L17.8746 19.057C18.134 19.0044 18.3723 18.8065 18.4651 18.5259L19.4437 15.564C19.5261 15.3145 19.4838 15.0239 19.2859 14.7856L17.2446 12.4858Z" fill="white"/>
</g>
</svg>
