<svg width="40" height="40" viewBox="0 0 40 40" fill="none" xmlns="http://www.w3.org/2000/svg">
<g opacity="0.5">
<ellipse cx="15.009" cy="14.2912" rx="15.009" ry="14.2912" transform="matrix(0.932811 -0.360367 0.405644 0.914031 0.282227 12.6401)" fill="black"/>
<path d="M28.5508 21.0923L27.2505 24.2632C27.2223 24.3321 27.179 24.395 27.1234 24.4481C27.0678 24.5011 27.0011 24.5432 26.9274 24.5716L15.9711 28.8043C15.9189 28.8245 15.8615 28.8302 15.8061 28.8207C15.7507 28.8113 15.6996 28.787 15.6592 28.751C15.6189 28.715 15.5909 28.6688 15.5787 28.618C15.5666 28.5672 15.5708 28.5141 15.5909 28.4652L16.8929 25.2937C16.9211 25.225 16.9642 25.1622 17.0196 25.1093C17.075 25.0563 17.1414 25.0143 17.2148 24.9858L28.1705 20.7533C28.2228 20.7331 28.2801 20.7274 28.3356 20.7369C28.3909 20.7463 28.442 20.7706 28.4824 20.8065C28.5228 20.8426 28.5508 20.8888 28.5629 20.9396C28.5751 20.9904 28.5709 21.0435 28.5508 21.0923ZM24.2038 17.3981C24.1316 17.368 24.0533 17.3521 23.9738 17.3512C23.8943 17.3503 23.8153 17.3646 23.7417 17.3931L12.7853 21.6258C12.7331 21.646 12.6882 21.6797 12.6561 21.723C12.6241 21.7662 12.6064 21.817 12.6051 21.8691C12.6038 21.9212 12.619 21.9724 12.6489 22.0163C12.6788 22.0602 12.722 22.095 12.7733 22.1164L16.0972 23.5008C16.1692 23.5308 16.2472 23.5467 16.3265 23.5477C16.4058 23.5486 16.4847 23.5345 16.5582 23.5062L27.5139 19.2738C27.5662 19.2536 27.6111 19.2198 27.6431 19.1766C27.6751 19.1333 27.6928 19.0826 27.6942 19.0304C27.6954 18.9783 27.6802 18.9272 27.6503 18.8832C27.6204 18.8393 27.5772 18.8045 27.526 18.7832L24.2038 17.3981ZM12.1287 20.1462L23.085 15.9135C23.1587 15.8851 23.2254 15.8431 23.281 15.79C23.3366 15.737 23.3798 15.674 23.4081 15.6051L24.7084 12.4343C24.7284 12.3854 24.7327 12.3323 24.7205 12.2815C24.7084 12.2308 24.6804 12.1845 24.64 12.1485C24.5995 12.1125 24.5485 12.0883 24.4932 12.0788C24.4377 12.0694 24.3804 12.0751 24.3281 12.0953L13.3724 16.3277C13.299 16.3562 13.2325 16.3983 13.1772 16.4512C13.1218 16.5042 13.0787 16.567 13.0505 16.6357L11.7491 19.807C11.729 19.8558 11.7248 19.9089 11.7369 19.9596C11.749 20.0103 11.7769 20.0565 11.8172 20.0926C11.8575 20.1286 11.9085 20.1528 11.9638 20.1624C12.0191 20.1719 12.0765 20.1663 12.1287 20.1462Z" fill="url(#paint0_linear_384_5274)"/>
</g>
<defs>
<linearGradient id="paint0_linear_384_5274" x1="17.0063" y1="28.7256" x2="22.249" y2="12.0802" gradientUnits="userSpaceOnUse">
<stop offset="0.08" stop-color="#9945FF"/>
<stop offset="0.3" stop-color="#8752F3"/>
<stop offset="0.5" stop-color="#5497D5"/>
<stop offset="0.6" stop-color="#43B4CA"/>
<stop offset="0.72" stop-color="#28E0B9"/>
<stop offset="0.97" stop-color="#19FB9B"/>
</linearGradient>
</defs>
</svg>
