<svg width="20" height="20" viewBox="0 0 20 20" fill="none" xmlns="http://www.w3.org/2000/svg">
<path d="M11.6 2.21557V5.52C11.6 5.96804 11.6 6.19206 11.6872 6.36319C11.7639 6.51372 11.8863 6.63611 12.0368 6.71281C12.2079 6.8 12.432 6.8 12.88 6.8H16.1844M16.4 8.39058V14.16C16.4 15.5041 16.4 16.1762 16.1384 16.6896C15.9083 17.1412 15.5412 17.5083 15.0896 17.7384C14.5762 18 13.9041 18 12.56 18H7.44001C6.09588 18 5.42382 18 4.91043 17.7384C4.45884 17.5083 4.09169 17.1412 3.86159 16.6896C3.60001 16.1762 3.60001 15.5041 3.60001 14.16V5.84C3.60001 4.49587 3.60001 3.82381 3.86159 3.31042C4.09169 2.85883 4.45884 2.49168 4.91043 2.26158C5.42382 2 6.09588 2 7.44001 2H10.0094C10.5964 2 10.89 2 11.1662 2.06631C11.411 2.1251 11.6452 2.22207 11.8599 2.35366C12.1021 2.50208 12.3096 2.70963 12.7247 3.12471L15.2753 5.67529C15.6904 6.09037 15.8979 6.29792 16.0463 6.54012C16.1779 6.75485 16.2749 6.98896 16.3337 7.23384C16.4 7.51005 16.4 7.80356 16.4 8.39058Z" stroke="#2C61F9" stroke-width="1.2" stroke-linecap="round" stroke-linejoin="round"/>
</svg>
