<svg width="20" height="20" viewBox="0 0 20 20" fill="none" xmlns="http://www.w3.org/2000/svg">
<path d="M12.3333 7.66667H12.3411M12.3333 12.3333C14.9107 12.3333 17 10.244 17 7.66667C17 5.08934 14.9107 3 12.3333 3C9.756 3 7.66667 5.08934 7.66667 7.66667C7.66667 7.87953 7.68092 8.08906 7.70852 8.29436C7.75392 8.63203 7.77661 8.80086 7.76133 8.90768C7.74542 9.01895 7.72516 9.07891 7.67031 9.17703C7.61767 9.27122 7.52489 9.364 7.33933 9.54956L3.36449 13.5244C3.22997 13.6589 3.16271 13.7262 3.11461 13.8047C3.07197 13.8743 3.04054 13.9501 3.02149 14.0295C3 14.119 3 14.2141 3 14.4044V15.7556C3 16.1912 3 16.409 3.08477 16.5753C3.15934 16.7217 3.27833 16.8407 3.42467 16.9152C3.59105 17 3.80885 17 4.24444 17H5.59565C5.78588 17 5.881 17 5.97051 16.9785C6.04988 16.9595 6.12574 16.928 6.19533 16.8854C6.27382 16.8373 6.34108 16.77 6.4756 16.6355L10.4504 12.6607C10.636 12.4751 10.7288 12.3823 10.823 12.3297C10.9211 12.2748 10.981 12.2546 11.0923 12.2387C11.1991 12.2234 11.368 12.2461 11.7056 12.2915C11.9109 12.3191 12.1205 12.3333 12.3333 12.3333Z" stroke="white" stroke-linecap="round" stroke-linejoin="round"/>
</svg>
